<mxfile modified="2024-07-06T10:59:50.948Z" host="app.diagrams.net" agent="Mozilla/5.0 (Windows NT 10.0; Win64; x64) AppleWebKit/537.36 (KHTML, like Gecko) Chrome/126.0.0.0 Safari/537.36" etag="QhOiGA0Qf_JPRmhoXUph" version="24.6.4" type="github">
  <diagram id="Ht1M8jgEwFfnCIfOTk4-" name="Page-1">
    <mxGraphModel dx="1500" dy="3227" grid="1" gridSize="10" guides="1" tooltips="1" connect="1" arrows="1" fold="1" page="1" pageScale="1" pageWidth="1169" pageHeight="827" math="0" shadow="0">
      <root>
        <mxCell id="0" />
        <mxCell id="1" parent="0" />
        <mxCell id="7m6AmPhjURivvRTaoIXu-7" value="AWS Cloud" style="points=[[0,0],[0.25,0],[0.5,0],[0.75,0],[1,0],[1,0.25],[1,0.5],[1,0.75],[1,1],[0.75,1],[0.5,1],[0.25,1],[0,1],[0,0.75],[0,0.5],[0,0.25]];outlineConnect=0;gradientColor=none;html=1;whiteSpace=wrap;fontSize=12;fontStyle=0;container=1;pointerEvents=0;collapsible=0;recursiveResize=0;shape=mxgraph.aws4.group;grIcon=mxgraph.aws4.group_aws_cloud_alt;strokeColor=#232F3E;fillColor=none;verticalAlign=top;align=left;spacingLeft=30;fontColor=#232F3E;dashed=0;" vertex="1" parent="1">
          <mxGeometry x="80" y="-2190" width="1000" height="390" as="geometry" />
        </mxCell>
        <mxCell id="UEzPUAAOIrF-is8g5C7q-177" value="Amazon S3&lt;br&gt;Bucket&lt;br&gt;" style="outlineConnect=0;fontColor=#232F3E;gradientColor=none;fillColor=#277116;strokeColor=none;dashed=0;verticalLabelPosition=bottom;verticalAlign=top;align=center;html=1;fontSize=12;fontStyle=0;aspect=fixed;pointerEvents=1;shape=mxgraph.aws4.bucket;labelBackgroundColor=#ffffff;" parent="7m6AmPhjURivvRTaoIXu-7" vertex="1">
          <mxGeometry x="467" y="107" width="75" height="78" as="geometry" />
        </mxCell>
        <mxCell id="7m6AmPhjURivvRTaoIXu-4" style="edgeStyle=orthogonalEdgeStyle;rounded=0;orthogonalLoop=1;jettySize=auto;html=1;entryX=0.133;entryY=0.513;entryDx=0;entryDy=0;entryPerimeter=0;" edge="1" parent="7m6AmPhjURivvRTaoIXu-7" source="7m6AmPhjURivvRTaoIXu-1" target="UEzPUAAOIrF-is8g5C7q-177">
          <mxGeometry relative="1" as="geometry">
            <Array as="points">
              <mxPoint x="330" y="147" />
              <mxPoint x="330" y="147" />
            </Array>
          </mxGeometry>
        </mxCell>
        <mxCell id="7m6AmPhjURivvRTaoIXu-12" value="" style="group" vertex="1" connectable="0" parent="7m6AmPhjURivvRTaoIXu-7">
          <mxGeometry x="290" y="86" width="70" height="99" as="geometry" />
        </mxCell>
        <mxCell id="7m6AmPhjURivvRTaoIXu-1" value="index.html&lt;div&gt;error.html&lt;/div&gt;&lt;div&gt;images&lt;/div&gt;" style="whiteSpace=wrap;html=1;aspect=fixed;container=0;fillColor=#e1d5e7;strokeColor=#9673a6;" vertex="1" parent="7m6AmPhjURivvRTaoIXu-12">
          <mxGeometry y="29" width="70" height="70" as="geometry">
            <mxRectangle y="30" width="100" height="60" as="alternateBounds" />
          </mxGeometry>
        </mxCell>
        <mxCell id="7m6AmPhjURivvRTaoIXu-11" value="&lt;b&gt;Objects uploaded&lt;/b&gt;" style="text;html=1;align=center;verticalAlign=middle;whiteSpace=wrap;rounded=0;" vertex="1" parent="7m6AmPhjURivvRTaoIXu-12">
          <mxGeometry x="5" width="60" height="30" as="geometry" />
        </mxCell>
        <mxCell id="7m6AmPhjURivvRTaoIXu-14" style="edgeStyle=orthogonalEdgeStyle;rounded=0;orthogonalLoop=1;jettySize=auto;html=1;" edge="1" parent="7m6AmPhjURivvRTaoIXu-7" source="7m6AmPhjURivvRTaoIXu-13" target="UEzPUAAOIrF-is8g5C7q-177">
          <mxGeometry relative="1" as="geometry">
            <Array as="points">
              <mxPoint x="650" y="146" />
              <mxPoint x="650" y="146" />
            </Array>
          </mxGeometry>
        </mxCell>
        <mxCell id="7m6AmPhjURivvRTaoIXu-16" value="" style="group" vertex="1" connectable="0" parent="7m6AmPhjURivvRTaoIXu-7">
          <mxGeometry x="650" y="27" width="200" height="191" as="geometry" />
        </mxCell>
        <mxCell id="7m6AmPhjURivvRTaoIXu-13" value="Policy" style="sketch=0;outlineConnect=0;fontColor=#232F3E;gradientColor=none;strokeColor=#232F3E;fillColor=#ffffff;dashed=0;verticalLabelPosition=bottom;verticalAlign=top;align=center;html=1;fontSize=12;fontStyle=0;aspect=fixed;shape=mxgraph.aws4.resourceIcon;resIcon=mxgraph.aws4.policy;" vertex="1" parent="7m6AmPhjURivvRTaoIXu-16">
          <mxGeometry y="51" width="140" height="140" as="geometry" />
        </mxCell>
        <mxCell id="7m6AmPhjURivvRTaoIXu-15" value="Attached s3 bucket policy to allow &quot;GetObject&quot; public access" style="text;html=1;align=center;verticalAlign=middle;whiteSpace=wrap;rounded=0;" vertex="1" parent="7m6AmPhjURivvRTaoIXu-16">
          <mxGeometry x="20" width="180" height="82" as="geometry" />
        </mxCell>
        <mxCell id="7m6AmPhjURivvRTaoIXu-17" value="&lt;b&gt;Public DNS&lt;/b&gt;&lt;div&gt;http://staticwebbucket365.s3-website-us-west-2.amazonaws.com&lt;/div&gt;" style="text;html=1;align=center;verticalAlign=middle;whiteSpace=wrap;rounded=0;" vertex="1" parent="7m6AmPhjURivvRTaoIXu-7">
          <mxGeometry x="430" y="230" width="162.5" height="50" as="geometry" />
        </mxCell>
        <mxCell id="7m6AmPhjURivvRTaoIXu-21" style="edgeStyle=orthogonalEdgeStyle;rounded=0;orthogonalLoop=1;jettySize=auto;html=1;" edge="1" parent="7m6AmPhjURivvRTaoIXu-7" source="7m6AmPhjURivvRTaoIXu-20" target="7m6AmPhjURivvRTaoIXu-17">
          <mxGeometry relative="1" as="geometry">
            <Array as="points">
              <mxPoint x="360" y="257" />
              <mxPoint x="360" y="257" />
            </Array>
          </mxGeometry>
        </mxCell>
        <mxCell id="7m6AmPhjURivvRTaoIXu-20" value="" style="sketch=0;points=[[0,0,0],[0.25,0,0],[0.5,0,0],[0.75,0,0],[1,0,0],[0,1,0],[0.25,1,0],[0.5,1,0],[0.75,1,0],[1,1,0],[0,0.25,0],[0,0.5,0],[0,0.75,0],[1,0.25,0],[1,0.5,0],[1,0.75,0]];outlineConnect=0;fontColor=#232F3E;fillColor=#8C4FFF;strokeColor=#ffffff;dashed=0;verticalLabelPosition=bottom;verticalAlign=top;align=center;html=1;fontSize=12;fontStyle=0;aspect=fixed;shape=mxgraph.aws4.resourceIcon;resIcon=mxgraph.aws4.route_53;" vertex="1" parent="7m6AmPhjURivvRTaoIXu-7">
          <mxGeometry x="130" y="218" width="78" height="78" as="geometry" />
        </mxCell>
        <mxCell id="7m6AmPhjURivvRTaoIXu-22" value="Used to host DNS records for www.mystaticweb.com" style="text;html=1;align=center;verticalAlign=middle;whiteSpace=wrap;rounded=0;" vertex="1" parent="7m6AmPhjURivvRTaoIXu-7">
          <mxGeometry x="109" y="310" width="120" height="30" as="geometry" />
        </mxCell>
        <mxCell id="7m6AmPhjURivvRTaoIXu-8" value="&lt;h1&gt;Hosting a Static Website&lt;/h1&gt;" style="text;strokeColor=none;fillColor=none;html=1;fontSize=24;fontStyle=1;verticalAlign=middle;align=center;" vertex="1" parent="1">
          <mxGeometry x="160" y="-2440" width="860" height="40" as="geometry" />
        </mxCell>
        <mxCell id="7m6AmPhjURivvRTaoIXu-18" value="" style="group" vertex="1" connectable="0" parent="1">
          <mxGeometry x="555" y="-2310" width="165" height="60" as="geometry" />
        </mxCell>
        <mxCell id="7m6AmPhjURivvRTaoIXu-6" value="users" style="sketch=0;outlineConnect=0;gradientColor=none;fontColor=#545B64;strokeColor=none;fillColor=#879196;dashed=0;verticalLabelPosition=bottom;verticalAlign=top;align=center;html=1;fontSize=12;fontStyle=0;aspect=fixed;shape=mxgraph.aws4.illustration_users;pointerEvents=1" vertex="1" parent="7m6AmPhjURivvRTaoIXu-18">
          <mxGeometry width="50" height="50" as="geometry" />
        </mxCell>
        <mxCell id="7m6AmPhjURivvRTaoIXu-9" value="user visits www.mystaticweb.com" style="text;html=1;align=center;verticalAlign=middle;whiteSpace=wrap;rounded=0;" vertex="1" parent="7m6AmPhjURivvRTaoIXu-18">
          <mxGeometry x="55" y="10" width="110" height="50" as="geometry" />
        </mxCell>
        <mxCell id="7m6AmPhjURivvRTaoIXu-19" style="edgeStyle=orthogonalEdgeStyle;rounded=0;orthogonalLoop=1;jettySize=auto;html=1;" edge="1" parent="1" source="7m6AmPhjURivvRTaoIXu-6" target="UEzPUAAOIrF-is8g5C7q-177">
          <mxGeometry relative="1" as="geometry">
            <Array as="points">
              <mxPoint x="580" y="-2130" />
              <mxPoint x="580" y="-2130" />
            </Array>
          </mxGeometry>
        </mxCell>
      </root>
    </mxGraphModel>
  </diagram>
</mxfile>
